Coordinates
version=1
nRows=11
nColumns=36
inDegrees=yes

Units are S.I. units (second, meters, Newtons, ...)
If the header above contains a line with 'inDegrees', this indicates whether rotational values are in degrees (yes) or radians (no).

endheader
time	pelvis_tilt	pelvis_list	pelvis_rotation	pelvis_tx	pelvis_ty	pelvis_tz	hip_flexion_r	hip_adduction_r	hip_rotation_r	knee_angle_r	knee_angle_r_beta	ankle_angle_r	subtalar_angle_r	mtp_angle_r	hip_flexion_l	hip_adduction_l	hip_rotation_l	knee_angle_l	knee_angle_l_beta	ankle_angle_l	subtalar_angle_l	mtp_angle_l	lumbar_extension	lumbar_bending	lumbar_rotation	arm_flex_r	arm_add_r	arm_rot_r	elbow_flex_r	pro_sup_r	arm_flex_l	arm_add_l	arm_rot_l	elbow_flex_l	pro_sup_l
      6.31666670	     -4.40514327	      0.43007753	      0.93843293	     -0.04962654	      0.77325713	      0.05127279	     38.42696192	     -8.70118424	     -3.76115994	     71.09061941	      1.24076538	     36.85910603	     -9.78399127	     -7.49999987	     40.12798873	    -15.60622716	     -5.00805971	     74.16904804	      1.29449409	     35.02486516	     -4.40797322	     -7.49999987	    -19.21084112	      1.79877860	     -5.77019208	    104.87832179	      9.30262889	     50.49413035	     51.92805535	     55.80877968	    119.47531467	     -1.85192254	     85.75859793	     81.97778466	     49.59883045
      6.33333330	     -4.06844288	      0.39266733	      0.82365228	     -0.04941682	      0.76534883	      0.05047253	     39.05101210	     -8.90736550	     -3.64637269	     73.16648643	      1.27699609	     38.58436805	     -8.34013640	     -7.49999987	     40.64878057	    -16.01128152	     -4.91065334	     76.04587913	      1.32725097	     36.42796926	     -3.58726704	     -7.49999987	    -20.20110758	      1.85293097	     -5.95509616	    104.01667702	      7.98168409	     49.03032429	     59.85585017	     56.83396646	    120.48696988	     -2.58861899	     87.03776610	     84.54302287	     50.62394433
      6.35000000	     -3.98719747	      0.37103698	      0.71817062	     -0.05280616	      0.75614529	      0.05095608	     40.15090282	     -9.01749976	     -3.39972445	     75.43519724	      1.31659256	     39.48561946	     -8.34473442	     -7.49999987	     42.03255209	    -16.33474617	     -4.51465467	     78.34971402	      1.36746048	     37.17383187	     -3.69577801	     -7.49999987	    -20.74661805	      1.63670845	     -5.57161429	    102.82173055	      7.25982014	     46.96994069	     60.84923190	     57.44650914	    120.22032452	     -2.28823004	     87.78285737	     83.34552759	     50.88353043
      6.36666670	     -4.36988518	      0.42951546	      0.37654450	     -0.05316346	      0.74647938	      0.05003309	     41.95243964	     -9.14537829	     -3.03431295	     77.75780003	      1.35712963	     40.17234074	     -8.31246017	     -7.49999987	     43.53874184	    -16.62649125	     -4.30551732	     80.54250059	      1.40573182	     37.92529508	     -3.68155956	     -7.49999987	    -21.15570800	      1.25510418	     -4.65226318	    100.23858210	      5.89279970	     40.02206468	     70.03601065	     65.84233448	    120.78722495	     -1.36592571	     87.78176565	     84.67581845	     49.35133180
      6.38333330	     -4.53998453	      0.39200571	      0.07526062	     -0.05423227	      0.73629088	      0.04963173	     43.64833618	     -9.27895277	     -2.68899009	     80.16466893	      1.39913742	     40.86834154	     -7.91641387	     -7.49999987	     44.88058184	    -16.99668687	     -4.08730346	     82.69218519	      1.44325090	     38.85853925	     -3.50783140	     -7.49999987	    -21.47867845	      1.24727536	     -4.30762467	    100.16952321	      5.28971744	     39.77787729	     72.97944662	     65.85663870	    120.83796584	     -1.51990188	     87.43505225	     85.47316526	     49.58079705
      6.40000000	     -4.76215808	      0.36772204	     -0.11387474	     -0.05487960	      0.72710078	      0.05109981	     45.32676349	     -9.25203006	     -2.28946569	     82.51613127	      1.44017818	     41.79105574	     -7.34954792	     -7.49999987	     46.18700835	    -17.43598626	     -3.82582917	     84.60162439	      1.47657690	     39.90595697	     -3.08195290	     -7.49999987	    -21.83924776	      1.00510089	     -4.11797261	    100.36659941	      5.15988438	     39.98239765	     72.59646849	     65.83919068	    121.09042493	     -1.58617703	     87.63881414	     85.44879058	     49.56573664
      6.41666670	     -5.17828493	      0.28435766	     -0.25262644	     -0.06003435	      0.71611549	      0.05201301	     47.60015250	     -9.19499214	     -1.94262348	     85.12966688	      1.48579298	     42.26855494	     -6.92518068	     -7.49999987	     48.22706611	    -17.90495574	     -3.34092935	     86.90018918	      1.51669442	     40.96815668	     -2.73371683	     -7.49999987	    -22.33806416	      1.04833582	     -3.31269727	    101.31397101	      4.65170572	     39.97947140	     76.41294143	     65.78821373	    121.77480397	     -1.48064030	     87.05998789	     85.57727314	     50.00776652
      6.43333330	     -5.22359836	      0.24750989	     -0.61201686	     -0.05682752	      0.70370126	      0.04912343	     49.23971229	     -9.29914551	     -1.43803307	     87.75043970	      1.53153409	     42.52598496	     -6.90128275	     -7.49999987	     49.59774785	    -18.42171454	     -3.04616791	     89.34648533	      1.55939034	     41.78383525	     -2.69361436	     -7.49999987	    -22.11377396	      0.92006787	     -4.04302886	    102.41481258	      6.56427799	     41.47954605	     62.92287733	     65.51477696	    120.91907069	     -2.26416947	     86.68954776	     85.30635988	     49.31028387
      6.45000000	     -5.80521163	      0.27614200	     -0.77763804	     -0.05860419	      0.69327569	      0.04791810	     51.24523609	     -9.42669864	     -1.03856652	     89.85277322	      1.56822673	     43.04722006	     -6.64283695	     -7.49999987	     51.49104623	    -18.67962780	     -2.75527951	     91.42205383	      1.59561585	     42.75510864	     -2.41013783	     -7.49999987	    -22.19002460	      0.68904749	     -3.32523573	    105.71773305	      7.01856140	     47.99572600	     58.16831690	     64.83047196	    121.00771570	     -1.49755327	     85.82669874	     85.25862095	     48.86606551
      6.46666670	     -6.16644578	      0.24620811	     -0.89011561	     -0.06058247	      0.67973269	      0.04716753	     53.33241483	     -9.71827905	     -0.57183688	     92.44079976	      1.61339632	     43.77653016	     -6.08460445	     -7.49999987	     53.49433784	    -18.99110146	     -2.12098088	     94.09448808	      1.64225862	     43.74921843	     -2.02188315	     -7.49999987	    -22.19383327	      0.75126827	     -3.54132687	    107.00110607	      8.16340076	     49.07855441	     52.16906412	     63.35020145	    121.29126878	     -1.45145743	     85.76796082	     84.40965007	     48.39959433
      6.48333330	     -6.45269630	      0.29202784	     -0.76385010	     -0.06436706	      0.67129710	      0.04854839	     54.93192313	     -9.92274112	     -0.31866664	     94.41374795	      1.64783076	     44.28480389	     -6.03281782	     -7.49999987	     55.14695201	    -19.12785305	     -1.62774824	     96.09569958	      1.67718635	     44.29029235	     -1.62736534	     -7.49999987	    -22.26393883	      0.72817171	     -3.17141627	    105.18164632	      6.82633422	     44.16958577	     58.46519017	     62.93907738	    121.44486001	     -0.79106860	     85.32473319	     84.69614016	     49.08881544
